<?xml version="1.0" encoding="UTF-8"?>
<svg id="Layer_1" data-name="Layer 1" xmlns="http://www.w3.org/2000/svg" viewBox="0 0 737.74 195.87">
  <defs>
    <style>
      .cls-1 {
        fill: #f2542f;
      }

      .cls-2 {
        fill: #fff;
      }
    </style>
  </defs>
  <g>
    <path class="cls-2" d="M214.26,90.33c-6.45,0-11.87-1.44-16.27-4.32-4.4-2.88-7.5-6.8-9.29-11.76l10.97-6.41c2.54,6.63,7.53,9.95,14.96,9.95,3.59,0,6.23-.65,7.9-1.95,1.67-1.3,2.51-2.94,2.51-4.93,0-2.29-1.02-4.07-3.07-5.34-2.04-1.27-5.7-2.65-10.97-4.14-2.91-.87-5.38-1.73-7.39-2.6-2.01-.87-4.03-2.03-6.04-3.49-2.01-1.46-3.55-3.3-4.6-5.53-1.05-2.23-1.58-4.83-1.58-7.81,0-5.88,2.09-10.58,6.27-14.08,4.18-3.5,9.22-5.25,15.1-5.25,5.27,0,9.9,1.29,13.89,3.86,4,2.57,7.11,6.15,9.34,10.73l-10.78,6.23c-2.6-5.58-6.75-8.37-12.45-8.37-2.67,0-4.76.6-6.27,1.81-1.52,1.21-2.28,2.77-2.28,4.69,0,2.04.85,3.7,2.56,4.97,1.7,1.27,4.97,2.65,9.81,4.14,1.98.62,3.49,1.1,4.51,1.44,1.02.34,2.42.87,4.18,1.58,1.77.71,3.13,1.38,4.09,2,.96.62,2.06,1.46,3.3,2.51,1.24,1.05,2.18,2.14,2.83,3.25.65,1.12,1.21,2.46,1.67,4.04s.7,3.3.7,5.16c0,6.01-2.18,10.78-6.55,14.31-4.37,3.53-10.05,5.3-17.05,5.3Z"/>
    <path class="cls-2" d="M273.65,54.08h-10.5v19.33c0,1.61.4,2.79,1.21,3.53.8.74,1.98,1.16,3.53,1.25,1.55.09,3.47.08,5.76-.05v10.87c-8.24.93-14.05.15-17.43-2.32-3.38-2.48-5.07-6.91-5.07-13.29v-19.33h-8.09v-11.52h8.09v-9.39l11.99-3.62v13.01h10.5v11.52Z"/>
    <path class="cls-2" d="M297.63,50.55c1.12-2.97,2.96-5.2,5.53-6.69,2.57-1.49,5.44-2.23,8.6-2.23v13.38c-3.66-.43-6.92.31-9.81,2.23-2.88,1.92-4.32,5.11-4.32,9.57v22.21h-11.99v-46.47h11.99v7.99Z"/>
    <path class="cls-2" d="M355.07,42.56h11.99v46.47h-11.99v-5.48c-3.59,4.52-8.64,6.78-15.15,6.78s-11.51-2.37-15.94-7.11c-4.43-4.74-6.65-10.55-6.65-17.43s2.21-12.69,6.65-17.43c4.43-4.74,9.74-7.11,15.94-7.11,6.51,0,11.56,2.26,15.15,6.79v-5.48ZM332.95,75.23c2.42,2.45,5.48,3.67,9.2,3.67s6.8-1.22,9.25-3.67,3.67-5.59,3.67-9.43-1.22-6.99-3.67-9.43c-2.45-2.45-5.53-3.67-9.25-3.67s-6.79,1.22-9.2,3.67c-2.42,2.45-3.62,5.59-3.62,9.43s1.21,6.99,3.62,9.43Z"/>
    <path class="cls-2" d="M407.3,54.08h-10.5v19.33c0,1.61.4,2.79,1.21,3.53.8.74,1.98,1.16,3.53,1.25,1.55.09,3.47.08,5.76-.05v10.87c-8.24.93-14.05.15-17.43-2.32-3.38-2.48-5.07-6.91-5.07-13.29v-19.33h-8.09v-11.52h8.09v-9.39l11.99-3.62v13.01h10.5v11.52Z"/>
    <path class="cls-2" d="M452.47,42.56h11.99v46.47h-11.99v-5.48c-3.59,4.52-8.64,6.78-15.15,6.78s-11.51-2.37-15.94-7.11c-4.43-4.74-6.65-10.55-6.65-17.43s2.21-12.69,6.65-17.43c4.43-4.74,9.74-7.11,15.94-7.11,6.51,0,11.55,2.26,15.15,6.79v-5.48ZM430.35,75.23c2.42,2.45,5.48,3.67,9.2,3.67s6.8-1.22,9.25-3.67c2.45-2.45,3.67-5.59,3.67-9.43s-1.22-6.99-3.67-9.43c-2.45-2.45-5.53-3.67-9.25-3.67s-6.79,1.22-9.2,3.67c-2.42,2.45-3.62,5.59-3.62,9.43s1.21,6.99,3.62,9.43Z"/>
    <path class="cls-2" d="M503.12,34.19c-6.57-.5-9.85,2.14-9.85,7.9v.46h9.85v11.52h-9.85v34.95h-11.99v-34.95h-6.69v-11.52h6.69v-.46c0-6.57,1.83-11.56,5.48-14.96,3.66-3.41,9.11-4.89,16.36-4.46v11.53Z"/>
    <path class="cls-2" d="M549.22,83.22c-4.77,4.74-10.6,7.11-17.47,7.11s-12.69-2.37-17.43-7.11c-4.74-4.74-7.11-10.55-7.11-17.43s2.37-12.69,7.11-17.43c4.74-4.74,10.55-7.11,17.43-7.11s12.7,2.37,17.47,7.11c4.77,4.74,7.16,10.55,7.16,17.43s-2.39,12.69-7.16,17.43ZM522.78,74.99c2.38,2.42,5.38,3.62,8.97,3.62s6.6-1.21,9.02-3.62c2.42-2.42,3.62-5.48,3.62-9.2s-1.21-6.79-3.62-9.2-5.42-3.62-9.02-3.62-6.58,1.21-8.97,3.62c-2.39,2.42-3.58,5.48-3.58,9.2s1.19,6.78,3.58,9.2Z"/>
    <path class="cls-2" d="M579.61,50.55c1.12-2.97,2.96-5.2,5.53-6.69,2.57-1.49,5.44-2.23,8.6-2.23v13.38c-3.66-.43-6.92.31-9.81,2.23-2.88,1.92-4.32,5.11-4.32,9.57v22.21h-11.99v-46.47h11.99v7.99Z"/>
    <path class="cls-2" d="M654.9,41.26c5.33,0,9.59,1.74,12.78,5.21,3.19,3.47,4.79,8.12,4.79,13.94v28.63h-11.99v-27.79c0-2.79-.68-4.96-2.04-6.51-1.36-1.55-3.28-2.32-5.76-2.32-2.73,0-4.85.9-6.37,2.7-1.52,1.8-2.28,4.4-2.28,7.81v26.12h-11.99v-27.79c0-2.79-.68-4.96-2.04-6.51-1.36-1.55-3.28-2.32-5.76-2.32-2.67,0-4.79.9-6.37,2.7-1.58,1.8-2.37,4.4-2.37,7.81v26.12h-11.99v-46.47h11.99v4.93c2.79-4.15,7.09-6.23,12.92-6.23s9.91,2.23,12.64,6.69c3.1-4.46,7.71-6.69,13.85-6.69Z"/>
  </g>
  <g>
    <polygon class="cls-1" points="115.32 42.69 89.45 68.56 88.85 67.96 63.57 42.69 66.2 40.06 89.45 16.81 115.32 42.69"/>
    <path class="cls-2" d="M131.38,78.53h-2.78c.46-.03.92-.04,1.39-.04s.93.01,1.39.04Z"/>
    <path class="cls-2" d="M147.95,119.81c-.39.42-.79.82-1.21,1.21l1.21-1.21Z"/>
    <path class="cls-2" d="M32.58,74.94c4.79-4.79,19.59-19.59,19.59-19.59-.22,1.17-.33,2.37-.33,3.6,0,3.85,1.11,7.43,3.02,10.46,2.96,4.69,7.83,8.31,13.58,8.91.95.1,2.85.21,3.8.21h59.13c.7.04,1.4.11,2.08.21.53.07,1.06.16,1.58.27,9.52,1.99,17.01,9.48,19,19,.24,1.15.4,2.33.47,3.53.03.5.05,1.01.05,1.51s-.02,1.01-.05,1.51c-.3,4.96-2.08,9.52-4.89,13.25-.52.7-1.08,1.37-1.68,2l-1.21,1.21-58.04,58.04-27.78-27.78,33.47-33.47h-45.44c-1.17,0-2.31-.08-3.44-.24-11.94-1.67-21.12-11.92-21.12-24.32,0-5.53,1.63-10.78,4.9-14.73.78-.94,2.74-3.04,3.29-3.58Z"/>
  </g>
  <g>
    <path class="cls-2" d="M192.79,107.41h12.83v65.06h-12.83v-65.06Z"/>
    <path class="cls-2" d="M245.76,124.69c5.08,0,9.28,1.71,12.59,5.11,3.31,3.41,4.97,8.12,4.97,14.13v28.53h-11.99v-27.05c0-3.1-.84-5.47-2.51-7.11-1.67-1.64-3.9-2.46-6.69-2.46-3.1,0-5.58.96-7.44,2.88-1.86,1.92-2.79,4.8-2.79,8.64v25.09h-11.99v-46.47h11.99v5.2c2.91-4.34,7.53-6.51,13.85-6.51Z"/>
    <path class="cls-2" d="M302.18,124.69c5.08,0,9.28,1.71,12.59,5.11,3.31,3.41,4.97,8.12,4.97,14.13v28.53h-11.99v-27.05c0-3.1-.84-5.47-2.51-7.11-1.67-1.64-3.9-2.46-6.69-2.46-3.1,0-5.58.96-7.44,2.88-1.86,1.92-2.79,4.8-2.79,8.64v25.09h-11.99v-46.47h11.99v5.2c2.91-4.34,7.53-6.51,13.85-6.51Z"/>
    <path class="cls-2" d="M372.35,166.66c-4.77,4.74-10.59,7.11-17.47,7.11s-12.69-2.37-17.43-7.11-7.11-10.55-7.11-17.43,2.37-12.69,7.11-17.43,10.55-7.11,17.43-7.11,12.7,2.37,17.47,7.11,7.16,10.55,7.16,17.43-2.38,12.69-7.16,17.43ZM345.91,158.43c2.38,2.42,5.38,3.62,8.97,3.62s6.6-1.21,9.01-3.62,3.62-5.48,3.62-9.2-1.21-6.79-3.62-9.2c-2.42-2.42-5.42-3.62-9.01-3.62s-6.58,1.21-8.97,3.62c-2.38,2.42-3.58,5.48-3.58,9.2s1.19,6.78,3.58,9.2Z"/>
    <path class="cls-2" d="M419.47,126h13.2l-17.66,46.47h-13.66l-17.66-46.47h13.2l11.26,32.52,11.32-32.52Z"/>
    <path class="cls-2" d="M474.68,126h11.99v46.47h-11.99v-5.48c-3.59,4.52-8.64,6.78-15.15,6.78s-11.51-2.37-15.94-7.11c-4.43-4.74-6.65-10.55-6.65-17.43s2.21-12.69,6.65-17.43c4.43-4.74,9.74-7.11,15.94-7.11,6.51,0,11.55,2.26,15.15,6.79v-5.48ZM452.56,158.67c2.42,2.45,5.48,3.67,9.2,3.67s6.8-1.22,9.25-3.67c2.45-2.45,3.67-5.59,3.67-9.43s-1.22-6.99-3.67-9.43c-2.45-2.45-5.53-3.67-9.25-3.67s-6.79,1.22-9.2,3.67c-2.42,2.45-3.62,5.59-3.62,9.43s1.21,6.99,3.62,9.43Z"/>
    <path class="cls-2" d="M526.91,137.52h-10.5v19.33c0,1.61.4,2.79,1.21,3.53.8.74,1.98,1.16,3.53,1.25,1.55.09,3.47.08,5.76-.05v10.87c-8.24.93-14.05.15-17.43-2.32-3.38-2.48-5.07-6.91-5.07-13.29v-19.33h-8.09v-11.52h8.09v-9.39l11.99-3.62v13.01h10.5v11.52Z"/>
    <path class="cls-2" d="M544.11,120.42c-1.98,0-3.7-.73-5.16-2.18-1.46-1.46-2.18-3.17-2.18-5.16s.73-3.72,2.18-5.21c1.46-1.49,3.17-2.23,5.16-2.23s3.79.74,5.25,2.23c1.46,1.49,2.18,3.22,2.18,5.21s-.73,3.7-2.18,5.16c-1.46,1.46-3.21,2.18-5.25,2.18ZM538.16,172.47v-46.47h11.99v46.47h-11.99Z"/>
    <path class="cls-2" d="M603.5,166.66c-4.77,4.74-10.6,7.11-17.47,7.11s-12.69-2.37-17.43-7.11c-4.74-4.74-7.11-10.55-7.11-17.43s2.37-12.69,7.11-17.43c4.74-4.74,10.55-7.11,17.43-7.11s12.7,2.37,17.47,7.11c4.77,4.74,7.16,10.55,7.16,17.43s-2.39,12.69-7.16,17.43ZM577.05,158.43c2.38,2.42,5.38,3.62,8.97,3.62s6.6-1.21,9.02-3.62,3.62-5.48,3.62-9.2-1.21-6.79-3.62-9.2c-2.42-2.42-5.42-3.62-9.02-3.62s-6.58,1.21-8.97,3.62c-2.39,2.42-3.58,5.48-3.58,9.2s1.19,6.78,3.58,9.2Z"/>
    <path class="cls-2" d="M647.74,124.69c5.08,0,9.28,1.71,12.59,5.11,3.31,3.41,4.97,8.12,4.97,14.13v28.53h-11.99v-27.05c0-3.1-.84-5.47-2.51-7.11-1.67-1.64-3.9-2.46-6.69-2.46-3.1,0-5.58.96-7.44,2.88-1.86,1.92-2.79,4.8-2.79,8.64v25.09h-11.99v-46.47h11.99v5.2c2.91-4.34,7.53-6.51,13.85-6.51Z"/>
    <path class="cls-2" d="M689.37,139.19c0,1.24.82,2.25,2.46,3.02,1.64.78,3.64,1.46,6,2.04,2.35.59,4.71,1.33,7.06,2.23,2.35.9,4.35,2.4,5.99,4.51,1.64,2.11,2.46,4.74,2.46,7.9,0,4.77-1.78,8.44-5.34,11.01-3.56,2.57-8.01,3.86-13.34,3.86-9.54,0-16.05-3.69-19.52-11.06l10.41-5.86c1.36,4.03,4.4,6.04,9.11,6.04,4.28,0,6.41-1.33,6.41-4,0-1.24-.82-2.25-2.46-3.02-1.64-.77-3.64-1.47-5.99-2.09-2.36-.62-4.71-1.39-7.06-2.32-2.36-.93-4.35-2.4-6-4.42-1.64-2.01-2.46-4.54-2.46-7.57,0-4.58,1.69-8.19,5.07-10.83,3.38-2.63,7.57-3.95,12.59-3.95,3.78,0,7.22.85,10.32,2.56,3.1,1.71,5.54,4.14,7.34,7.3l-10.22,5.58c-1.49-3.16-3.97-4.74-7.44-4.74-1.55,0-2.83.34-3.86,1.02-1.02.68-1.53,1.61-1.53,2.79Z"/>
  </g>
</svg>